HIERARCHY
ROOT hip
{
	OFFSET 0.000000 0.000000 0.000000 
	CHANNELS 6 Xposition Yposition Zposition Xrotation Zrotation Yrotation
	JOINT abdomen
	{
		OFFSET 0.000000 3.402643 0.000000 
		CHANNELS 3 Xrotation Zrotation Yrotation
		JOINT chest
		{
			OFFSET 0.000000 8.438565 -0.680529 
			CHANNELS 3 Xrotation Zrotation Yrotation
			JOINT neck
			{
				OFFSET 0.000000 10.207942 -0.272212 
				CHANNELS 3 Xrotation Zrotation Yrotation
				JOINT head
				{
					OFFSET 0.000000 3.130431 0.000000 
					CHANNELS 3 Xrotation Zrotation Yrotation
					End Site
					{
						OFFSET 0.000000 3.130435 0.000000 
					}
				}
			}
			JOINT lCollar
			{
				OFFSET 3.470700 6.669187 -0.816635 
				CHANNELS 3 Yrotation Zrotation Xrotation
				JOINT lShldr
				{
					OFFSET 3.198488 0.000000 0.000000 
					CHANNELS 3 Zrotation Yrotation Xrotation
					JOINT lForeArm
					{
						OFFSET 10.139888 0.000000 0.000000 
						CHANNELS 3 Yrotation Zrotation Xrotation
						JOINT lHand
						{
							OFFSET 8.370511 0.000000 0.000000 
							CHANNELS 3 Zrotation Yrotation Xrotation
							End Site
							{
								OFFSET 4.083176 0.000000 0.000000 
							}
						}
					}
				}
			}
			JOINT rCollar
			{
				OFFSET -3.470700 6.669187 -0.816635 
				CHANNELS 3 Yrotation Zrotation Xrotation
				JOINT rShldr
				{
					OFFSET -3.198488 0.000000 0.000000 
					CHANNELS 3 Zrotation Yrotation Xrotation
					JOINT rForeArm
					{
						OFFSET -10.139888 0.000000 0.000000 
						CHANNELS 3 Yrotation Zrotation Xrotation
						JOINT rHand
						{
							OFFSET -8.370511 0.000000 0.000000 
							CHANNELS 3 Zrotation Yrotation Xrotation
							End Site
							{
								OFFSET -4.083176 0.000000 0.000000 
							}
						}
					}
				}
			}
		}
	}
	JOINT lThigh
	{
		OFFSET 5.308129 -1.633274 1.361059 
		CHANNELS 3 Xrotation Zrotation Yrotation
		JOINT lShin
		{
			OFFSET -2.041588 -20.007561 0.000000 
			CHANNELS 3 Xrotation Zrotation Yrotation
			JOINT lFoot
			{
				OFFSET 0.000000 -19.190928 -1.224953 
				CHANNELS 3 Xrotation Yrotation Zrotation
				End Site
				{
					OFFSET 0.000000 -2.449906 4.627600 
				}
			}
		}
	}
	JOINT rThigh
	{
		OFFSET -5.308129 -1.633274 1.361059 
		CHANNELS 3 Xrotation Zrotation Yrotation
		JOINT rShin
		{
			OFFSET 2.041588 -20.007561 0.000000 
			CHANNELS 3 Xrotation Zrotation Yrotation
			JOINT rFoot
			{
				OFFSET 0.000000 -19.190928 -1.224953 
				CHANNELS 3 Xrotation Yrotation Zrotation
				End Site
				{
					OFFSET 0.000000 -2.449906 4.627600 
				}
			}
		}
	}
}
MOTION
Frames: 10
Frame Time: 0.011111
-27.575104 51.417599 1.132848 -4.009071 -2.223941 18.855349 28.543152 -4.431897 9.092047 -20.915186 -5.398707 2.857626 -12.365160 0.594067 10.493919 40.094467 0.844573 23.269249 2.424333 -4.683778 1.783845 -65.405533 -26.162924 -12.969240 -39.460674 4.547246 4.203987 8.524705 12.647240 -63.450573 -2.738486 -1.140572 2.095526 69.754494 25.514679 31.452419 57.679207 -9.047372 11.379253 -8.534408 -12.637552 36.048687 -16.470642 21.917933 4.444914 30.662788 -5.294254 -4.952267 -23.882984 15.434643 3.329375 8.352000 0.683812 3.720059 24.242615 5.596530 4.087208 -42.287964 -17.825003 -13.031041 
-27.369404 51.389332 1.217654 -3.958897 -2.256600 19.412642 28.462111 -4.580234 8.887532 -21.013296 -5.482844 2.830372 -12.153104 0.662803 10.486020 39.998104 0.900243 23.310024 2.424333 -4.683778 1.783845 -65.236443 -26.126234 -13.598847 -39.218575 4.456454 4.114526 8.524705 12.647240 -64.212288 -2.738486 -1.140572 2.095526 69.944038 25.120317 31.283609 57.924362 -9.080021 11.500969 -8.534408 -12.637552 36.136578 -16.489317 21.731298 4.546228 30.802853 -5.283891 -4.972334 -24.098928 15.237508 3.338275 8.419717 0.644740 3.779355 24.351898 5.601260 4.097783 -42.900368 -18.001797 -13.487671 
-27.148367 51.357452 1.307572 -3.907986 -2.240066 19.986046 28.456669 -4.742960 8.744055 -20.974148 -5.504864 2.807681 -12.270493 0.485683 10.491599 40.037540 1.098240 23.346609 2.424333 -4.683778 1.783845 -65.201569 -26.400192 -14.566748 -38.906006 4.341408 4.013724 8.524705 12.647240 -65.071671 -2.738486 -1.140572 2.095526 69.979187 24.924282 31.153913 58.051868 -9.093405 11.548367 -8.534408 -12.637552 36.507671 -16.381153 21.456690 4.631197 30.822662 -5.283969 -4.974097 -24.167166 15.018345 3.296932 8.540356 0.537278 3.735080 24.393963 5.592019 4.099481 -43.419563 -18.060427 -13.832105 
-26.924025 51.318958 1.400498 -3.850840 -2.274665 20.444830 28.387110 -4.896416 8.725771 -20.846697 -5.461735 2.813712 -12.390115 0.321390 10.465219 40.020130 1.121519 23.249842 2.424333 -4.683778 1.783845 -65.259682 -26.887720 -16.240751 -38.483036 4.180841 3.870554 8.524705 12.647240 -66.809944 -2.738486 -1.140572 2.095526 69.851646 24.995119 31.061464 57.988113 -9.086761 11.523878 -8.534408 -12.637552 36.663918 -16.473028 21.237888 4.728061 30.902275 -5.284060 -4.971392 -23.684044 15.349397 3.230879 8.729879 0.459007 3.768923 24.313875 5.591496 4.092367 -43.934654 -17.990135 -14.126499 
-26.698475 51.308136 1.499137 -3.822645 -2.410069 20.863184 28.279816 -4.971422 8.807489 -20.729082 -5.495795 2.842327 -12.405890 0.275771 10.386075 39.907341 1.078326 23.052874 2.424333 -4.683778 1.783845 -65.216492 -27.249699 -17.419315 -38.161182 4.054956 3.756356 8.524705 12.647240 -68.196663 -2.738486 -1.140572 2.095526 69.831093 24.966209 30.767796 57.966423 -9.082800 11.513512 -8.534408 -12.637552 36.253769 -16.558094 21.145868 4.734107 31.002716 -5.279593 -4.959579 -23.471647 15.374300 3.154587 8.995548 0.498609 3.854467 24.110226 5.607320 4.067320 -44.454166 -18.033159 -14.485171 
-26.464510 51.314747 1.598979 -3.792997 -2.503617 21.327520 28.216753 -5.033653 8.812305 -20.689905 -5.556072 2.849757 -12.485339 0.243751 10.358446 39.977688 1.054478 22.977648 2.424333 -4.683778 1.783845 -65.119080 -27.348726 -17.656382 -38.071007 4.024009 3.727249 8.524705 12.647240 -68.538460 -2.738486 -1.140572 2.095526 69.906448 24.788937 30.506916 57.975868 -9.079917 11.515390 -8.534408 -12.637552 35.980324 -16.704422 20.989677 4.552692 31.102524 -5.264164 -5.012722 -23.097328 15.320047 3.014020 9.300084 0.478999 3.993991 23.807373 5.617013 4.032289 -44.972301 -18.168758 -14.906413 
-26.220917 51.321667 1.697919 -3.680720 -2.521733 21.800362 28.105947 -5.239722 8.780661 -20.709511 -5.593912 2.862364 -12.488766 0.204613 10.317225 40.037067 1.026904 22.890907 2.424333 -4.683778 1.783845 -65.020447 -27.379398 -17.590712 -38.090942 4.030174 3.735206 8.524705 12.647240 -68.509171 -2.738486 -1.140572 2.095526 69.971169 24.582561 30.245684 57.923038 -9.074836 11.492797 -8.534408 -12.637552 35.775249 -16.969683 20.718643 4.191530 31.302092 -5.254712 -5.028596 -22.498741 15.203699 2.773571 9.527989 0.332196 4.069708 23.481483 5.640130 3.988292 -45.319717 -18.373537 -15.248269 
-25.974018 51.334896 1.792950 -3.548447 -2.514339 22.358656 28.001545 -5.455993 8.661428 -20.817360 -5.637605 2.864351 -12.329855 0.247292 10.236860 40.000340 0.923302 22.716730 2.424333 -4.683778 1.783845 -64.870163 -27.293579 -16.974230 -38.221672 4.080445 3.776590 8.524705 12.647240 -67.796280 -2.738486 -1.140572 2.095526 70.073318 24.277779 29.991575 57.848507 -9.065660 11.458350 -8.534408 -12.637552 35.560410 -17.302406 20.397392 3.720246 31.511398 -5.250443 -5.026387 -21.851250 15.134309 2.526092 9.700319 0.186293 4.071752 23.251055 5.636810 3.966606 -45.658249 -18.632044 -15.632303 
-25.743961 51.344215 1.868734 -3.424453 -2.463679 22.963490 28.042463 -5.721370 8.450768 -20.934992 -5.613045 2.846020 -12.313386 0.235395 10.198282 40.026073 0.866607 22.640699 2.424333 -4.683778 1.783845 -64.812210 -27.382280 -16.751251 -38.332264 4.124968 3.820643 8.524705 12.647240 -67.561905 -2.738486 -1.140572 2.095526 70.137802 24.061634 29.867065 57.710358 -9.048648 11.391426 -8.534408 -12.637552 35.609234 -17.490074 20.038799 3.428278 31.700848 -5.235102 -5.068791 -21.789497 14.681060 2.380064 9.835571 0.049697 4.140930 23.188419 5.649760 3.944320 -46.323151 -18.662022 -16.081135 
-25.528940 51.348732 1.934594 -3.310460 -2.393192 23.548441 28.173243 -6.051544 8.268528 -20.954491 -5.485455 2.834533 -12.372214 0.032085 10.226776 39.830299 0.981858 22.661364 2.424333 -4.683778 1.783845 -64.879089 -27.801329 -17.438517 -38.311878 4.111206 3.806582 8.524705 12.647240 -68.206436 -2.738486 -1.140572 2.095526 70.068542 24.072748 29.845068 57.445900 -9.021547 11.285994 -8.534408 -12.637552 35.824074 -17.700027 19.691174 3.249578 31.910446 -5.221306 -5.093152 -21.744461 14.292531 2.253640 9.899769 -0.116454 4.091770 23.271435 5.636997 3.958677 -47.001141 -18.462463 -16.435854 
